<svg xmlns="http://www.w3.org/2000/svg" xmlns:xlink="http://www.w3.org/1999/xlink" width="500" zoomAndPan="magnify" viewBox="0 0 375 374.999991" height="500" preserveAspectRatio="xMidYMid meet" version="1.0"><defs><g/></defs><path stroke-linecap="round" transform="matrix(0.000000000000000046, -0.750218, 0.75, 0.000000000000000046, 296.32264, 218.554951)" fill="none" stroke-linejoin="miter" d="M 21.499315 21.502106 L 247.428483 21.502106 " stroke="#000000" stroke-width="43" stroke-opacity="1" stroke-miterlimit="4"/><path stroke-linecap="round" transform="matrix(0.000000000000000046, -0.751043, 0.75, 0.000000000000000046, 45.629318, 287.828741)" fill="none" stroke-linejoin="miter" d="M 21.502167 21.499453 L 248.129685 21.499453 " stroke="#000000" stroke-width="43" stroke-opacity="1" stroke-miterlimit="4"/><path stroke-linecap="round" transform="matrix(0.491364, -0.5667, 0.566656, 0.491326, 207.600137, 123.657825)" fill="none" stroke-linejoin="miter" d="M 21.498286 21.501639 L 178.491991 21.50077 " stroke="#000000" stroke-width="43" stroke-opacity="1" stroke-miterlimit="4"/><path stroke-linecap="round" transform="matrix(0.526655, 0.533148, -0.53357, 0.527071, 67.713905, 80.098392)" fill="none" stroke-linejoin="miter" d="M 21.50246 21.500224 L 156.650675 21.501414 " stroke="#000000" stroke-width="43" stroke-opacity="1" stroke-miterlimit="4"/><path stroke-linecap="round" transform="matrix(-0.530734, -0.52962, 0.529773, -0.530887, 306.719574, 293.695879)" fill="none" stroke-linejoin="miter" d="M 21.500128 21.500721 L 466.652944 21.500552 " stroke="#000000" stroke-width="43" stroke-opacity="1" stroke-miterlimit="4"/><path stroke-linecap="round" transform="matrix(-0.530499, 0.530499, -0.53033, -0.53033, 279.093884, 163.126645)" fill="none" stroke-linejoin="miter" d="M 21.499548 21.502144 L 125.458961 21.498461 " stroke="#000000" stroke-width="43" stroke-opacity="1" stroke-miterlimit="4"/><g fill="#000000" fill-opacity="1"><g transform="translate(48.234353, 354.313067)"><g><path d="M 9.78125 0 L 9.78125 -25.265625 L 1.140625 -25.265625 L 1.140625 -29.625 L 23.859375 -29.625 L 23.859375 -25.265625 L 15.1875 -25.265625 L 15.1875 0 Z M 9.78125 0 "/></g></g></g><g fill="#000000" fill-opacity="1"><g transform="translate(79.796503, 354.313067)"><g><path d="M 2.875 0 L 2.875 -29.625 L 13.75 -29.625 C 16.125 -29.625 18.078125 -29.21875 19.609375 -28.40625 C 21.148438 -27.601562 22.300781 -26.519531 23.0625 -25.15625 C 23.820312 -23.789062 24.203125 -22.273438 24.203125 -20.609375 C 24.203125 -18.796875 23.726562 -17.140625 22.78125 -15.640625 C 21.84375 -14.148438 20.367188 -13.066406 18.359375 -12.390625 L 24.5 0 L 18.28125 0 L 12.78125 -11.671875 L 8.296875 -11.671875 L 8.296875 0 Z M 8.296875 -15.65625 L 13.40625 -15.65625 C 15.21875 -15.65625 16.546875 -16.09375 17.390625 -16.96875 C 18.234375 -17.84375 18.65625 -19 18.65625 -20.4375 C 18.65625 -21.84375 18.238281 -22.96875 17.40625 -23.8125 C 16.570312 -24.664062 15.226562 -25.09375 13.375 -25.09375 L 8.296875 -25.09375 Z M 8.296875 -15.65625 "/></g></g></g><g fill="#000000" fill-opacity="1"><g transform="translate(112.712445, 354.313067)"><g><path d="M 0.96875 0 L 11.8125 -29.625 L 17.890625 -29.625 L 28.734375 0 L 22.96875 0 L 20.609375 -6.859375 L 9.0625 -6.859375 L 6.640625 0 Z M 10.53125 -11.078125 L 19.125 -11.078125 L 14.8125 -23.40625 Z M 10.53125 -11.078125 "/></g></g></g><g fill="#000000" fill-opacity="1"><g transform="translate(148.928227, 354.313067)"><g><path d="M 2.875 0 L 2.875 -29.625 L 8.296875 -29.625 L 22.21875 -8.765625 L 22.21875 -29.625 L 27.625 -29.625 L 27.625 0 L 22.21875 0 L 8.296875 -20.8125 L 8.296875 0 Z M 2.875 0 "/></g></g></g><g fill="#000000" fill-opacity="1"><g transform="translate(185.986431, 354.313067)"><g/></g></g><g fill="#000000" fill-opacity="1"><g transform="translate(202.614669, 354.313067)"><g/></g></g><g fill="#000000" fill-opacity="1"><g transform="translate(219.242908, 354.313067)"><g/></g></g><g fill="#000000" fill-opacity="1"><g transform="translate(235.853967, 354.313067)"><g><path d="M 13.84375 0.5 C 11.8125 0.5 9.96875 0.0976562 8.3125 -0.703125 C 6.664062 -1.503906 5.347656 -2.75 4.359375 -4.4375 C 3.367188 -6.132812 2.875 -8.296875 2.875 -10.921875 L 2.875 -29.625 L 6.4375 -29.625 L 6.4375 -10.875 C 6.4375 -8 7.125 -5.910156 8.5 -4.609375 C 9.882812 -3.316406 11.691406 -2.671875 13.921875 -2.671875 C 16.148438 -2.671875 17.941406 -3.316406 19.296875 -4.609375 C 20.648438 -5.910156 21.328125 -8 21.328125 -10.875 L 21.328125 -29.625 L 24.875 -29.625 L 24.875 -10.921875 C 24.875 -8.296875 24.378906 -6.132812 23.390625 -4.4375 C 22.410156 -2.75 21.085938 -1.503906 19.421875 -0.703125 C 17.753906 0.0976562 15.894531 0.5 13.84375 0.5 Z M 13.84375 0.5 "/></g></g></g><g fill="#000000" fill-opacity="1"><g transform="translate(270.165988, 354.313067)"><g><path d="M 12.5625 0.5 C 10.394531 0.5 8.503906 0.109375 6.890625 -0.671875 C 5.285156 -1.460938 4.046875 -2.5625 3.171875 -3.96875 C 2.296875 -5.382812 1.859375 -7.023438 1.859375 -8.890625 L 5.578125 -8.890625 C 5.578125 -7.734375 5.84375 -6.664062 6.375 -5.6875 C 6.914062 -4.71875 7.703125 -3.941406 8.734375 -3.359375 C 9.765625 -2.785156 11.039062 -2.5 12.5625 -2.5 C 14.570312 -2.5 16.125 -2.976562 17.21875 -3.9375 C 18.320312 -4.894531 18.875 -6.09375 18.875 -7.53125 C 18.875 -8.71875 18.617188 -9.671875 18.109375 -10.390625 C 17.597656 -11.109375 16.910156 -11.691406 16.046875 -12.140625 C 15.191406 -12.597656 14.207031 -12.992188 13.09375 -13.328125 C 11.976562 -13.671875 10.816406 -14.050781 9.609375 -14.46875 C 7.316406 -15.257812 5.617188 -16.238281 4.515625 -17.40625 C 3.421875 -18.582031 2.875 -20.113281 2.875 -22 C 2.84375 -23.582031 3.207031 -24.984375 3.96875 -26.203125 C 4.738281 -27.429688 5.820312 -28.390625 7.21875 -29.078125 C 8.613281 -29.773438 10.269531 -30.125 12.1875 -30.125 C 14.070312 -30.125 15.710938 -29.769531 17.109375 -29.0625 C 18.503906 -28.363281 19.585938 -27.390625 20.359375 -26.140625 C 21.140625 -24.898438 21.546875 -23.492188 21.578125 -21.921875 L 17.859375 -21.921875 C 17.859375 -22.734375 17.644531 -23.539062 17.21875 -24.34375 C 16.800781 -25.15625 16.160156 -25.8125 15.296875 -26.3125 C 14.429688 -26.820312 13.351562 -27.078125 12.0625 -27.078125 C 10.445312 -27.109375 9.125 -26.695312 8.09375 -25.84375 C 7.070312 -25 6.5625 -23.832031 6.5625 -22.34375 C 6.5625 -21.070312 6.921875 -20.097656 7.640625 -19.421875 C 8.359375 -18.742188 9.363281 -18.1875 10.65625 -17.75 C 11.957031 -17.3125 13.453125 -16.8125 15.140625 -16.25 C 16.554688 -15.738281 17.828125 -15.144531 18.953125 -14.46875 C 20.085938 -13.789062 20.96875 -12.914062 21.59375 -11.84375 C 22.226562 -10.769531 22.546875 -9.40625 22.546875 -7.75 C 22.546875 -6.332031 22.179688 -4.992188 21.453125 -3.734375 C 20.722656 -2.484375 19.613281 -1.460938 18.125 -0.671875 C 16.644531 0.109375 14.789062 0.5 12.5625 0.5 Z M 12.5625 0.5 "/></g></g></g><g fill="#000000" fill-opacity="1"><g transform="translate(301.178168, 354.313067)"><g><path d="M 3.125 0 L 3.125 -29.625 L 21.453125 -29.625 L 21.453125 -26.703125 L 6.6875 -26.703125 L 6.6875 -16.375 L 20.1875 -16.375 L 20.1875 -13.5 L 6.6875 -13.5 L 6.6875 -2.921875 L 21.453125 -2.921875 L 21.453125 0 Z M 3.125 0 "/></g></g></g><path stroke-linecap="round" transform="matrix(0.000000000000000041, -0.670408, 0.662706, 0.000000000000000041, 220.706942, 347.450428)" fill="none" stroke-linejoin="miter" d="M 2.501448 2.499359 L 31.116259 2.499359 " stroke="#000000" stroke-width="5" stroke-opacity="1" stroke-miterlimit="4"/><path stroke-linecap="round" transform="matrix(0.000000000000000041, -0.668853, 0.662706, 0.000000000000000041, 193.015626, 355.0982)" fill="none" stroke-linejoin="miter" d="M 2.500428 2.499223 L 31.205116 2.499223 " stroke="#000000" stroke-width="5" stroke-opacity="1" stroke-miterlimit="4"/><path stroke-linecap="round" transform="matrix(0.434411, -0.501014, 0.500701, 0.434139, 210.877565, 337.049071)" fill="none" stroke-linejoin="miter" d="M 2.498446 2.500347 L 22.496877 2.500275 " stroke="#000000" stroke-width="5" stroke-opacity="1" stroke-miterlimit="4"/><path stroke-linecap="round" transform="matrix(0.460168, 0.465842, -0.471466, 0.465723, 195.246863, 332.247401)" fill="none" stroke-linejoin="miter" d="M 2.502112 2.501778 L 19.767902 2.501446 " stroke="#000000" stroke-width="5" stroke-opacity="1" stroke-miterlimit="4"/><path stroke-linecap="round" transform="matrix(-0.468976, -0.467991, 0.468111, -0.469096, 221.820664, 355.66316)" fill="none" stroke-linejoin="miter" d="M 2.498206 2.502068 L 58.517578 2.498386 " stroke="#000000" stroke-width="5" stroke-opacity="1" stroke-miterlimit="4"/><path stroke-linecap="round" transform="matrix(-0.473792, 0.444606, -0.453483, -0.483252, 218.685165, 341.419754)" fill="none" stroke-linejoin="miter" d="M 2.500903 2.498595 L 15.869267 2.503245 " stroke="#000000" stroke-width="5" stroke-opacity="1" stroke-miterlimit="4"/></svg>